<svg xmlns="http://www.w3.org/2000/svg" width="1200" height="628" viewBox="0 0 1200 628" role="img" aria-labelledby="title desc">
  <title id="title">Google Shopping Feed Optimization Guide 2026</title>
  <desc id="desc">FeedOps guide image showing a raw product feed becoming an optimized Google Shopping feed with higher visibility and clicks.</desc>
  <defs>
    <filter id="shadow" x="-12%" y="-14%" width="124%" height="130%">
      <feDropShadow dx="0" dy="16" stdDeviation="18" flood-color="#172033" flood-opacity=".12"/>
    </filter>
    <linearGradient id="greenFade" x1="0" y1="0" x2="0" y2="1">
      <stop offset="0" stop-color="#38d16d" stop-opacity=".48"/>
      <stop offset="1" stop-color="#38d16d" stop-opacity=".05"/>
    </linearGradient>
  </defs>

  <rect width="1200" height="628" fill="#f7faf8"/>
  <path d="M0 562 C170 596 306 548 472 578 C672 615 824 548 1000 574 C1084 586 1143 608 1200 590 L1200 628 L0 628 Z" fill="#ffcf2d"/>
  <path d="M0 0 H1200 V628 H0 Z" fill="none" stroke="#eef2f5"/>

  <g transform="translate(48 50)">
    <text x="0" y="45" font-family="Inter, Arial, sans-serif" font-size="38" font-weight="900" fill="#111827">Google Shopping</text>
    <text x="0" y="92" font-family="Inter, Arial, sans-serif" font-size="46" font-weight="950" fill="#f5b700">Feed Optimization</text>
    <text x="0" y="139" font-family="Inter, Arial, sans-serif" font-size="38" font-weight="900" fill="#111827">Guide 2026</text>
    <text x="0" y="184" font-family="Inter, Arial, sans-serif" font-size="18" font-weight="650" fill="#5b6677">Audit first. Improve product data.</text>
    <text x="0" y="212" font-family="Inter, Arial, sans-serif" font-size="18" font-weight="650" fill="#5b6677">Increase visibility and clicks.</text>

    <g transform="translate(0 260)">
      <rect x="0" y="0" width="268" height="56" rx="8" fill="#ffffff" stroke="#d9e2ea"/>
      <circle cx="28" cy="28" r="17" fill="#ebf8f3" stroke="#1c8c6f" stroke-width="2"/>
      <path d="M20 28 L26 34 L38 21" fill="none" stroke="#1c8c6f" stroke-width="4" stroke-linecap="round" stroke-linejoin="round"/>
      <text x="58" y="24" font-family="Inter, Arial, sans-serif" font-size="14" font-weight="900" fill="#121826">Start with benchmarks</text>
      <text x="58" y="43" font-family="Inter, Arial, sans-serif" font-size="12" font-weight="700" fill="#667085">Visibility, clicks, attributes</text>
    </g>

    <g transform="translate(0 336)">
      <rect x="0" y="0" width="268" height="56" rx="8" fill="#ffffff" stroke="#d9e2ea"/>
      <circle cx="28" cy="28" r="17" fill="#ebf8f3" stroke="#1c8c6f" stroke-width="2"/>
      <path d="M20 28 L26 34 L38 21" fill="none" stroke="#1c8c6f" stroke-width="4" stroke-linecap="round" stroke-linejoin="round"/>
      <text x="58" y="24" font-family="Inter, Arial, sans-serif" font-size="14" font-weight="900" fill="#121826">Optimize by impact</text>
      <text x="58" y="43" font-family="Inter, Arial, sans-serif" font-size="12" font-weight="700" fill="#667085">Types, attributes, titles</text>
    </g>
  </g>

  <g transform="translate(382 42)" filter="url(#shadow)">
    <rect x="0" y="0" width="324" height="350" rx="18" fill="#ffffff" stroke="#e1e8ef"/>
    <rect x="18" y="18" width="288" height="38" rx="8" fill="#111827"/>
    <text x="34" y="43" font-family="Inter, Arial, sans-serif" font-size="15" font-weight="900" fill="#ffffff">Raw product feed audit</text>

    <g transform="translate(22 80)">
      <rect width="280" height="72" rx="10" fill="#f8fafc" stroke="#e7edf3"/>
      <rect x="14" y="14" width="52" height="44" rx="8" fill="#e7eef7"/>
      <path d="M25 48 C38 25 50 25 57 48 Z" fill="#2563eb"/>
      <text x="82" y="27" font-family="Inter, Arial, sans-serif" font-size="12" font-weight="900" fill="#111827">Trail Running Shoe</text>
      <text x="82" y="48" font-family="Inter, Arial, sans-serif" font-size="11" font-weight="750" fill="#667085">Missing color, size, gender</text>
    </g>

    <g transform="translate(22 168)">
      <rect width="280" height="72" rx="10" fill="#f8fafc" stroke="#e7edf3"/>
      <rect x="14" y="14" width="52" height="44" rx="8" fill="#e7eef7"/>
      <rect x="28" y="26" width="26" height="28" rx="7" fill="#9a6a3a"/>
      <path d="M31 27 C34 15 49 15 52 27" fill="none" stroke="#734a26" stroke-width="4"/>
      <text x="82" y="27" font-family="Inter, Arial, sans-serif" font-size="12" font-weight="900" fill="#111827">Leather Tote Bag</text>
      <text x="82" y="48" font-family="Inter, Arial, sans-serif" font-size="11" font-weight="750" fill="#667085">Weak title, broad product type</text>
    </g>

    <g transform="translate(22 256)">
      <rect width="280" height="72" rx="10" fill="#f8fafc" stroke="#e7edf3"/>
      <rect x="14" y="14" width="52" height="44" rx="8" fill="#e7eef7"/>
      <rect x="30" y="18" width="22" height="38" rx="5" fill="#496d42"/>
      <rect x="34" y="11" width="14" height="9" rx="3" fill="#2f4f2b"/>
      <text x="82" y="27" font-family="Inter, Arial, sans-serif" font-size="12" font-weight="900" fill="#111827">Insulated Bottle</text>
      <text x="82" y="48" font-family="Inter, Arial, sans-serif" font-size="11" font-weight="750" fill="#667085">Low organic visibility</text>
    </g>
  </g>

  <g transform="translate(725 82)">
    <path d="M0 102 H78" stroke="#ffbf00" stroke-width="8" stroke-linecap="round" stroke-dasharray="1 16"/>
    <path d="M78 102 L56 88 V116 Z" fill="#ffbf00"/>
    <path d="M0 190 H78" stroke="#ffbf00" stroke-width="8" stroke-linecap="round" stroke-dasharray="1 16"/>
    <path d="M78 190 L56 176 V204 Z" fill="#ffbf00"/>
    <path d="M0 278 H78" stroke="#ffbf00" stroke-width="8" stroke-linecap="round" stroke-dasharray="1 16"/>
    <path d="M78 278 L56 264 V292 Z" fill="#ffbf00"/>
  </g>

  <g transform="translate(812 38)" filter="url(#shadow)">
    <rect x="0" y="0" width="318" height="76" rx="14" fill="#ffffff" stroke="#e1e8ef"/>
    <rect x="16" y="16" width="44" height="44" rx="9" fill="#e7eef7"/>
    <path d="M27 50 C40 27 52 27 59 50 Z" fill="#2563eb"/>
    <text x="76" y="28" font-family="Inter, Arial, sans-serif" font-size="13" font-weight="900" fill="#111827">Mens Trail Running Shoes</text>
    <text x="76" y="50" font-family="Inter, Arial, sans-serif" font-size="11" font-weight="750" fill="#667085">blue, size 10, trail, breathable</text>
    <circle cx="278" cy="38" r="23" fill="#ecfdf3" stroke="#2ebc4f" stroke-width="3"/>
    <text x="267" y="43" font-family="Inter, Arial, sans-serif" font-size="16" font-weight="950" fill="#138a36">94</text>
  </g>

  <g transform="translate(812 140)" filter="url(#shadow)">
    <rect x="0" y="0" width="318" height="76" rx="14" fill="#ffffff" stroke="#e1e8ef"/>
    <rect x="16" y="16" width="44" height="44" rx="9" fill="#e7eef7"/>
    <rect x="29" y="26" width="22" height="26" rx="7" fill="#9a6a3a"/>
    <path d="M31 27 C34 15 48 15 51 27" fill="none" stroke="#734a26" stroke-width="4"/>
    <text x="76" y="28" font-family="Inter, Arial, sans-serif" font-size="13" font-weight="900" fill="#111827">Womens Leather Tote Bag</text>
    <text x="76" y="50" font-family="Inter, Arial, sans-serif" font-size="11" font-weight="750" fill="#667085">tan, laptop, work bag, one size</text>
    <circle cx="278" cy="38" r="23" fill="#ecfdf3" stroke="#2ebc4f" stroke-width="3"/>
    <text x="267" y="43" font-family="Inter, Arial, sans-serif" font-size="16" font-weight="950" fill="#138a36">91</text>
  </g>

  <g transform="translate(812 242)" filter="url(#shadow)">
    <rect x="0" y="0" width="318" height="76" rx="14" fill="#ffffff" stroke="#e1e8ef"/>
    <rect x="16" y="16" width="44" height="44" rx="9" fill="#e7eef7"/>
    <rect x="31" y="19" width="20" height="36" rx="5" fill="#496d42"/>
    <rect x="34" y="12" width="14" height="9" rx="3" fill="#2f4f2b"/>
    <text x="76" y="28" font-family="Inter, Arial, sans-serif" font-size="13" font-weight="900" fill="#111827">Insulated Water Bottle 750ml</text>
    <text x="76" y="50" font-family="Inter, Arial, sans-serif" font-size="11" font-weight="750" fill="#667085">green, stainless steel, BPA free</text>
    <circle cx="278" cy="38" r="23" fill="#ecfdf3" stroke="#2ebc4f" stroke-width="3"/>
    <text x="267" y="43" font-family="Inter, Arial, sans-serif" font-size="16" font-weight="950" fill="#138a36">96</text>
  </g>

  <g transform="translate(390 428)" filter="url(#shadow)">
    <rect x="0" y="0" width="220" height="126" rx="14" fill="#ffffff" stroke="#e1e8ef"/>
    <text x="18" y="30" font-family="Inter, Arial, sans-serif" font-size="14" font-weight="950" fill="#111827">Audit focus</text>
    <text x="18" y="58" font-family="Inter, Arial, sans-serif" font-size="12" font-weight="800" fill="#667085">Attribute completeness</text>
    <text x="18" y="83" font-family="Inter, Arial, sans-serif" font-size="12" font-weight="800" fill="#667085">Organic and paid visibility</text>
    <text x="18" y="108" font-family="Inter, Arial, sans-serif" font-size="12" font-weight="800" fill="#667085">Products with no clicks</text>
  </g>

  <g transform="translate(636 428)" filter="url(#shadow)">
    <rect x="0" y="0" width="220" height="126" rx="14" fill="#ffffff" stroke="#e1e8ef"/>
    <text x="18" y="30" font-family="Inter, Arial, sans-serif" font-size="14" font-weight="950" fill="#111827">Optimization tests</text>
    <text x="18" y="58" font-family="Inter, Arial, sans-serif" font-size="12" font-weight="800" fill="#667085">Product types</text>
    <text x="18" y="83" font-family="Inter, Arial, sans-serif" font-size="12" font-weight="800" fill="#667085">Missing attributes</text>
    <text x="18" y="108" font-family="Inter, Arial, sans-serif" font-size="12" font-weight="800" fill="#667085">Google-specific titles</text>
  </g>

  <g transform="translate(882 428)" filter="url(#shadow)">
    <rect x="0" y="0" width="220" height="126" rx="14" fill="#ffffff" stroke="#e1e8ef"/>
    <text x="18" y="30" font-family="Inter, Arial, sans-serif" font-size="14" font-weight="950" fill="#111827">Performance goal</text>
    <text x="18" y="58" font-family="Inter, Arial, sans-serif" font-size="15" font-weight="950" fill="#16a34a">More products seen</text>
    <text x="18" y="78" font-family="Inter, Arial, sans-serif" font-size="15" font-weight="950" fill="#16a34a">More products clicked</text>
    <path d="M18 106 L52 96 L86 98 L122 84 L158 88 L196 74" fill="none" stroke="#28a745" stroke-width="4" stroke-linecap="round" stroke-linejoin="round"/>
    <path d="M18 106 L52 96 L86 98 L122 84 L158 88 L196 74 V112 H18 Z" fill="url(#greenFade)"/>
  </g>

  <g transform="translate(48 522)">
    <image href="../../2022/12/Feedops-logo_Final-2-4.png" x="0" y="0" width="142" height="52" preserveAspectRatio="xMinYMin meet"/>
  </g>
</svg>
